<svg width="221" height="45" viewBox="0 0 221 45" fill="none" xmlns="http://www.w3.org/2000/svg">
<path d="M127.767 11.2806C127.39 10.5111 126.686 9.95444 125.851 9.75797C123.87 9.29956 121.807 9.18496 119.777 9.41416C117.174 9.72523 114.685 10.6093 112.475 12.0009L114.227 13.3598C115.668 14.5058 115.93 16.5851 114.784 18.0422L104.584 30.9923C105.222 33.7756 106.532 36.3787 108.399 38.5398L127.456 14.3585C128.143 13.4744 128.274 12.2792 127.783 11.2642L127.767 11.2806Z" fill="black"/>
<path d="M136.131 16.4859C134.805 14.7014 133.168 13.1788 131.285 12L109.461 39.7013C111.524 41.715 114.046 43.2048 116.812 44.0234L137.146 18.205C136.868 17.5828 136.524 17.0098 136.131 16.4695V16.4859Z" fill="black"/>
<path d="M138.014 19.6631L118.482 44.4665C121.069 44.9741 123.721 44.8922 126.275 44.2537C134.019 42.2399 139.488 35.3146 139.635 27.3088C139.668 24.6729 139.127 22.0698 138.03 19.6795L138.014 19.6631Z" fill="black"/>
<path d="M184.741 12.8356C188.285 12.8356 191.159 9.96223 191.159 6.41779C191.159 2.87334 188.285 0 184.741 0C181.197 0 178.323 2.87334 178.323 6.41779C178.323 9.96223 181.197 12.8356 184.741 12.8356Z" fill="black"/>
<path d="M46.3816 27.9467V44.4332H43.6802V28.1596C43.6802 21.7745 40.3895 18.4183 34.8721 18.4183C28.4871 18.4183 24.5415 22.6914 24.5415 29.3875V44.4169H21.8401V28.1432C21.8401 21.7582 18.5494 18.4019 13.032 18.4019C6.64699 18.4019 2.70136 22.675 2.70136 29.3711V44.4005H0V16.2245H2.60313V22.2821C4.43679 18.3364 8.28418 16.0116 13.4086 16.0116C18.533 16.0116 22.2167 18.3364 23.7393 22.8223C25.8021 18.451 30.3208 15.7497 35.1505 16.0116C41.9776 16.0116 46.398 20.0719 46.398 27.9631L46.3816 27.9467Z" fill="black"/>
<path d="M73.0501 26.899V44.5152H69.3665V40.0784C67.6311 42.9926 64.2912 44.7771 59.5761 44.7771C53.1419 44.7771 49.1963 41.4209 49.1963 36.5093C49.1963 32.138 52.0123 28.4544 60.1655 28.4544H69.1864V26.7189C69.1864 21.8565 66.4359 19.2042 61.1314 19.2042C57.6769 19.1551 54.3207 20.3503 51.6684 22.5605L49.933 19.6954C53.2238 17.1086 57.3168 15.7498 61.508 15.8644C68.8753 15.8644 73.0338 19.548 73.0338 26.899H73.0501ZM69.2191 35.9854V31.3358H60.2964C54.7791 31.3358 52.9946 33.4969 52.9946 36.4111C52.9946 39.7019 55.6468 41.7647 60.1818 41.7647C64.1275 42.0103 67.7784 39.6691 69.2028 35.9854H69.2191Z" fill="black"/>
<path d="M105.157 15.6357H99.5255L91.5524 26.1956L83.6611 15.8649H77.8655L88.6218 29.8629L77.3252 44.5158H83.1209L91.5033 33.5466L99.7711 44.5158H105.665L94.2537 29.8629L105.141 15.6357H105.157Z" fill="black"/>
<path d="M176.424 29.9772C176.424 39.1127 170.104 44.9575 161.935 44.9575C158.464 45.1703 155.108 43.7787 152.799 41.1756V44.5318H144.744V4.4043H153.176V18.5169C155.435 16.1266 158.644 14.8496 161.935 15.0133C170.104 15.0133 176.424 20.8581 176.424 29.9772ZM167.878 29.9772C167.878 24.951 164.685 21.9222 160.478 21.9222C156.27 21.9222 153.077 24.951 153.077 29.9772C153.077 35.0034 156.27 38.0322 160.478 38.0322C164.685 38.0322 167.878 35.0034 167.878 29.9772Z" fill="black"/>
<path d="M190.207 15.1113V44.5153H179.287V15.1113H190.207Z" fill="black"/>
<path d="M220.366 14.9473V22.0363L208.038 35.4449H220.906V44.5313H192.681V37.4423L205.009 24.0337H193.221V14.9473H220.366Z" fill="black"/>
</svg>
